<svg xmlns="http://www.w3.org/2000/svg" width="120" height="120" fill="none" viewBox="0 0 120 120">
    <path fill="#282B3E" fill-rule="evenodd" d="M30.062 15.244C38.923 9.322 49.342 6.161 60 6.161c14.28.01 27.972 5.685 38.073 15.779C108.174 32.033 113.86 45.72 113.88 60c.008 10.658-3.145 21.08-9.061 29.945-5.915 8.866-14.328 15.778-24.172 19.862-9.845 4.084-20.68 5.157-31.134 3.083-10.454-2.075-20.058-7.203-27.598-14.737C14.376 90.621 9.241 81.02 7.158 70.567c-2.082-10.452-1.017-21.288 3.06-31.136 4.077-9.847 10.983-18.264 19.844-24.187zm5.493 81.342C42.791 101.42 51.298 104 60 104c11.67 0 22.861-4.636 31.113-12.887C99.364 82.862 104 71.67 104 60c0-8.702-2.58-17.21-7.415-24.445C91.75 28.32 84.878 22.681 76.838 19.35c-8.04-3.33-16.887-4.201-25.422-2.503-8.535 1.697-16.375 5.888-22.529 12.041-6.153 6.154-10.344 13.994-12.041 22.53-1.698 8.534-.827 17.381 2.503 25.421s8.97 14.912 16.206 19.747zm15.252-21.713c2.438 2.438 5.745 3.808 9.193 3.808 3.448 0 6.754-1.37 9.192-3.808C71.63 72.435 73 69.128 73 65.681h10c0 6.1-2.424 11.95-6.737 16.263C71.95 86.257 66.1 88.681 60 88.681c-6.1 0-11.95-2.424-16.264-6.737C39.423 77.631 37 71.781 37 65.681h10c0 3.448 1.37 6.754 3.807 9.192zM47.84 43.68h-9.68v10h9.68v-10zm24.2 0h9.68v10h-9.68v-10z" clip-rule="evenodd"/>
</svg>
