<svg xmlns="http://www.w3.org/2000/svg" width="140" height="24" fill="none" viewBox="0 0 140 24">
    <path fill="#fff" d="M109.953 14.718l2.311 3.16-7.165.461c2.081-2.927 2.774-4.314 3.621-6.24l-2.003-.77c-1.849 4.622-4.545 7.242-4.545 7.242l.693 2.08 10.632-1.156 1.156 1.541 1.618-1.156-4.623-6.317-1.695 1.155zm-2.234-12.25V.08h-2.08v2.388h-8.475v4.16h1.926V4.396h15.255v2.234h1.926v-4.16h-8.552zm-1.464 3.39l-2.08-.77c-.308 1.001-.539 1.926-.925 2.928h-6.086v2.003h5.239c-1.541 3.313-3.621 6.01-6.087 7.935l1.618 1.618c2.697-2.388 5.008-5.316 6.78-9.553h11.403V8.016h-10.632c.385-.77.539-1.31.77-2.158zM135.3 2.62h-2.08v13.097h2.08V2.619zm-7.936.385c1.31-.308 2.774-.77 3.776-1.156L130.292 0c-2.08.925-6.318 1.926-9.553 2.388l.385 1.618s2.696-.385 4.083-.616v2.928h-4.468v1.926h4.468s-1.618 3.39-4.931 7.396l1.541 1.54s2.235-3.081 3.39-5.546v8.937h2.08v-8.86s2.081 2.234 2.851 3.158l1.464-1.463c-.462-.463-4.315-4.007-4.315-4.007V8.321h4.315V6.395h-4.315v-3.39h.077zM137.919.462v18.183h-5.624l2.08 2.08H140V.462h-2.081zM78.855 15.238c0 2.004 1.465 3.468 3.237 3.468 1.31 0 2.698-.848 3.238-1.927l1.773 1.62c-1.002 1.464-3.006 2.697-5.242 2.697-3.623 0-5.858-2.698-5.858-6.63 0-3.776 2.39-6.628 5.935-6.628 3.315 0 5.704 2.158 5.55 7.323h-8.633v.077zm5.627-2.082c0-1.541-1.002-3.006-2.698-3.006-1.619 0-2.852 1.542-2.93 3.006h5.628zM75.54 10.536h-2.621v10.329h-2.775v-10.33h-1.696V8.224h1.696v-2.62c0-2.082 1.31-3.932 3.931-3.932 1.233 0 2.236.309 2.852.617l-.848 2.158c-.385-.23-1.002-.462-1.541-.462-.848 0-1.619.616-1.619 1.773v2.466h3.315l-.694 2.313zM65.288 2.519c.925 0 1.773.77 1.773 1.773 0 1.002-.848 1.773-1.773 1.773-1.002 0-1.772-.848-1.772-1.773 0-.925.77-1.773 1.773-1.773zm1.465 18.268h-2.852V8.223h2.852v12.564zM60.74 20.787h-2.774V4.215L60.74 1.44v19.347zM52.184 8.223h2.775v12.565h-2.852V19.4c-.771.694-2.004 1.619-3.623 1.619-1.619 0-3.854-.848-3.854-4.008V8.223h2.775v7.94c0 1.464.617 2.466 1.927 2.466 1.079 0 2.081-.694 2.852-1.542V8.223zM34.764 20.788H31.99V8.223h2.775v1.388c1.002-.925 2.467-1.696 4.085-1.696 1.465 0 3.546.848 3.546 3.931v8.942H39.62V12.54c0-1.233-.54-2.313-1.773-2.313-1.079 0-2.39.925-3.083 1.465v9.096zM26.67 20.788V19.4c-.694.771-1.773 1.696-3.7 1.696-2.235 0-4.008-1.387-4.008-3.777 0-2.929 2.698-4.008 5.396-4.24l1.002-.077c1.002-.077 1.387-.616 1.387-1.31 0-.848-.77-1.464-2.004-1.464-1.387 0-2.698 1.002-3.237 1.772l-1.542-1.85c1.002-1.233 2.698-2.158 4.933-2.158 2.852 0 4.548 1.465 4.548 4.008v8.942H26.67v-.154zm0-6.013l-1.927.232c-1.619.23-3.083.77-3.083 2.158 0 1.002.848 1.696 1.927 1.696 1.31 0 2.39-.848 3.083-1.696v-2.39zM3.083 20.788H0V3.29h3.237l5.242 8.633 5.087-8.633h3.238v17.498H13.72V8.455h-.078l-5.318 8.787-5.242-8.787v12.333z"/>
</svg>
