<svg xmlns="http://www.w3.org/2000/svg" width="30" height="30" fill="none" viewBox="0 0 30 30">
    <path fill="#282B3E" d="M27.26 18.87l-.54-.55c-.875-.87-1.999-1.445-3.216-1.646-1.217-.2-2.466-.017-3.574.526l-.18.09-7.06-7.05.09-.18c.677-1.426.764-3.06.244-4.55-.52-1.49-1.607-2.715-3.024-3.41-1.412-.68-3.035-.773-4.515-.26-1.48.514-2.697 1.592-3.385 3-.538 1.12-.714 2.381-.504 3.606.21 1.226.794 2.356 1.674 3.234l15 15.07c1.123 1.111 2.64 1.735 4.22 1.735 1.58 0 3.097-.624 4.22-1.735 1.03-1.024 1.653-2.388 1.755-3.837.1-1.449-.327-2.886-1.205-4.043zM25 25c-.322.324-.704.58-1.125.756-.422.175-.874.266-1.33.266-.456 0-.908-.09-1.33-.266-.421-.175-.803-.432-1.125-.756L5 9.91c-.52-.51-.866-1.172-.988-1.89s-.014-1.457.308-2.11c.199-.407.477-.771.818-1.07.34-.3.737-.529 1.166-.674.43-.145.884-.204 1.337-.172.452.032.894.153 1.299.356.411.2.779.478 1.081.82.303.343.535.741.683 1.174.148.432.208.89.179 1.345-.03.456-.15.902-.353 1.311l-.87 1.78 9.59 9.58 1.75-.91c.641-.314 1.364-.42 2.069-.304.704.116 1.355.45 1.86.954l.36.36c.502.667.747 1.491.694 2.323-.053.833-.402 1.619-.983 2.217z"/>
</svg>
